<?xml version="1.0" encoding="UTF-8" standalone="no"?>
<!DOCTYPE svg PUBLIC "-//W3C//DTD SVG 20010904//EN"
              "http://www.w3.org/TR/2001/REC-SVG-20010904/DTD/svg10.dtd">

<svg xmlns="http://www.w3.org/2000/svg"
     viewBox="0 0 512 512">
  <path id="Selection #2"
        fill="black" stroke="black" stroke-width="1"
        d="M 102.00,64.00
           C 102.00,64.00 147.00,64.00 147.00,64.00
             156.06,64.00 166.56,62.29 173.96,68.39
             183.29,76.07 181.88,85.39 182.00,96.00
             182.14,108.06 185.78,130.18 188.88,142.00
             191.65,152.55 196.66,162.86 194.67,174.00
             193.33,181.54 187.15,186.85 182.00,192.00
             182.00,192.00 156.00,218.00 156.00,218.00
             153.66,220.34 146.03,227.48 144.99,230.00
             143.70,233.09 145.95,236.38 147.42,239.00
             147.42,239.00 158.81,258.00 158.81,258.00
             175.99,285.66 201.95,313.26 227.00,333.92
             238.74,343.60 252.88,353.26 266.00,360.99
             268.84,362.66 278.22,368.49 281.00,368.44
             285.00,368.36 293.01,358.99 296.00,356.00
             296.00,356.00 331.00,321.88 331.00,321.88
             341.84,313.93 353.68,319.29 365.00,321.88
             384.43,326.99 403.97,329.91 424.00,330.00
             439.08,330.07 447.98,337.60 448.00,353.00
             448.00,353.00 448.00,416.00 448.00,416.00
             448.00,426.15 449.71,436.16 440.91,443.47
             432.97,450.06 416.10,448.11 406.00,448.00
             406.00,448.00 396.00,447.09 396.00,447.09
             372.64,445.46 349.54,441.25 327.00,434.86
             223.39,405.50 135.92,330.32 93.43,231.00
             79.25,197.85 69.67,162.87 65.84,127.00
             65.84,127.00 64.00,105.00 64.00,105.00
             63.98,89.43 60.18,71.74 78.00,64.65
             83.69,63.48 95.64,64.00 102.00,64.00 Z" />
</svg>
